# xmcd
#
# Track frame offsets: 
#        165
#        11310
#        23185
#        35387
#        48000
#        59087
#        72015
#        84617
#        96300
#        107657
#        120547
#        131742
#        143967
#        155332
#        166980
#        179135
#        190567
#        200205
#        212477
#        224610
#
# Disc length: 3152 seconds
#
# Revision: 1
# Processed by: cddbd v1.5.2PL0 Copyright (c) Steve Scherf et al.
# Submitted via: ExactAudioCopy v0.99pb3
#
DISCID=220c4e14
DTITLE=Various Artist - Harlem N.Y. The Ballad Era Vol 1 Disc 1
DYEAR=1993
DGENRE=Doo Wop
TTITLE0=The Charmers - The Beating Of My Heart
TTITLE1=The Spaniels - Baby It's You
TTITLE2=The Love Notes - United
TTITLE3=The Dells - Tell The World
TTITLE4=The Ebonaires - Love Call
TTITLE5=Starlites - Missing You
TTITLE6=Continentals - Dear Lord
TTITLE7=The Videos - Moonglow You Know
TTITLE8=Gay Knights - Angel
TTITLE9=The Turbans - Congratulations
TTITLE10=Superiors - Lost Love
TTITLE11=Harmonaires - Lorraine
TTITLE12=Charts - My Diane
TTITLE13=Channels - My Heart Is Sad
TTITLE14=The Quinns - Oh Starlight
TTITLE15=Lewis Lymon and The Teenchords - Please Tell The Angels
TTITLE16=Click-Ettes - Lovers' Prayer
TTITLE17=Lee Andrews and The Hearts - Lonely Room
TTITLE18=Deltairs - Lullaby Of The Bells
TTITLE19=Jackie and The Starlites - I Found Out Too Late
EXTD=
EXTT0=
EXTT1=
EXTT2=
EXTT3=
EXTT4=
EXTT5=
EXTT6=
EXTT7=
EXTT8=
EXTT9=
EXTT10=
EXTT11=
EXTT12=
EXTT13=
EXTT14=
EXTT15=
EXTT16=
EXTT17=
EXTT18=
EXTT19=
PLAYORDER=
